<mxfile host="app.diagrams.net" modified="2024-01-20T09:02:37.443Z" agent="Mozilla/5.0 (Windows NT 10.0; Win64; x64; rv:121.0) Gecko/20100101 Firefox/121.0" version="22.1.21" etag="IdlD-AbSArI_db6l-3Ku" type="github">
  <diagram name="Page-1" id="UxzOsR4MExxDNSgnz9ty">
    <mxGraphModel>
      <root>
        <mxCell id="0" />
        <mxCell id="1" parent="0" />
      </root>
    </mxGraphModel>
  </diagram>
</mxfile>
